<?xml version="1.0" encoding="utf-8"?>
<svg xmlns="http://www.w3.org/2000/svg">
  <defs>
    <!-- icons go here -->
    <symbol id="icon-nextflow" viewBox="0 0 15 15">
        <path d="M0 2.7648C2.367 2.922 4.2636 4.8234 4.4124 7.1928H7.1766C7.023 3.2952 3.8958 0.162 0 0V2.7648Z" fill="#0DC09D"/>
        <path d="M4.428 7.82336C4.2708 10.1904 2.3694 12.087 0 12.2358V15C3.8976 14.8464 7.0308 11.7192 7.1928 7.82336H4.428Z" fill="#0DC09D"/>
        <path d="M10.572 7.1766C10.7292 4.8096 12.6306 2.913 15 2.7642V0C11.1024 0.1536 7.96919 3.2808 7.80719 7.1766H10.572Z" fill="#0DC09D"/>
        <path d="M15 12.2353C12.633 12.0781 10.7364 10.1767 10.5876 7.80725H7.82339C7.97699 11.7049 11.1042 14.8381 15 15.0001V12.2353Z" fill="#0DC09D"/>
    </symbol>

  </defs>
</svg>