<?xml version="1.0" encoding="utf-8"?>
<svg xmlns="http://www.w3.org/2000/svg">
  <defs>
    <!-- icons go here -->
    <symbol id="icon-nextflow" viewBox="0 0 15 15">
        <path d="M0 2.7648C2.367 2.922 4.2636 4.8234 4.4124 7.1928H7.1766C7.023 3.2952 3.8958 0.162 0 0V2.7648Z" fill="#0DC09D"/>
        <path d="M4.428 7.82336C4.2708 10.1904 2.3694 12.087 0 12.2358V15C3.8976 14.8464 7.0308 11.7192 7.1928 7.82336H4.428Z" fill="#0DC09D"/>
        <path d="M10.572 7.1766C10.7292 4.8096 12.6306 2.913 15 2.7642V0C11.1024 0.1536 7.96919 3.2808 7.80719 7.1766H10.572Z" fill="#0DC09D"/>
        <path d="M15 12.2353C12.633 12.0781 10.7364 10.1767 10.5876 7.80725H7.82339C7.97699 11.7049 11.1042 14.8381 15 15.0001V12.2353Z" fill="#0DC09D"/>
    </symbol>

    <symbol id="icon-wave" viewBox="0 0 15 15" fill="none">    
        <g clip-path="url(#clip0_1_2876)">
        <path d="M2.78687 7.17656C2.94086 4.80957 4.80345 2.91298 7.1245 2.76418V0C3.30644 0.153599 0.237185 3.28078 0.0784912 7.17656H2.78687Z" fill="#3D95FD"/>
        <path d="M2.78687 15C2.94086 12.6331 4.80345 10.7365 7.1245 10.5877V7.82349C3.30644 7.97709 0.237185 11.1043 0.0784912 15H2.78687Z" fill="#3D95FD"/>
        <path d="M12.064 0.00012207C11.91 2.36711 10.0474 4.2637 7.72635 4.4125V7.17668C11.5444 7.02308 14.6137 3.8959 14.7724 0.00012207L12.064 0.00012207Z" fill="#3D95FD"/>
        <path d="M12.064 7.82349C11.91 10.1905 10.0474 12.0871 7.72635 12.2359V15C11.5444 14.8464 14.6137 11.7193 14.7724 7.82349H12.064Z" fill="#3D95FD"/>
        </g>
        <defs>
        <clipPath id="clip0_1_2876">
        <rect width="15" height="15" fill="white"/>
        </clipPath>
        </defs>
    </symbol>

    <symbol id="icon-fusion" viewBox="0 0 15 15" fill="none">
        <g clip-path="url(#clip0_1_2916)">
        <path d="M7.1766 12.2353C4.8096 12.0781 2.913 10.1767 2.7642 7.80725H0C0.1536 11.7049 3.2808 14.8381 7.1766 15.0001V12.2353Z" fill="#FA6863"/>
        <path d="M2.7648 7.1766C2.922 4.8096 4.8234 2.913 7.1928 2.7642V0C3.2952 0.1536 0.162 3.2808 0 7.1766H2.7648Z" fill="#FA6863"/>
        <path d="M12.2352 7.82336C12.078 10.1904 10.1766 12.087 7.80719 12.2358V15C11.7048 14.8464 14.838 11.7192 15 7.82336H12.2352Z" fill="#FA6863"/>
        <path d="M7.82339 2.7648C10.1904 2.922 12.087 4.8234 12.2358 7.1928H15C14.8464 3.2952 11.7192 0.162 7.82339 0V2.7648Z" fill="#FA6863"/>
        </g>
        <defs>
        <clipPath id="clip0_1_2916">
        <rect width="15" height="15" fill="white"/>
        </clipPath>
        </defs>
    </symbol>

    <symbol id="icon-nf-core" viewBox="0 0 15 15" fill="none">
        <g clip-path="url(#clip0_1_2923)">
        <rect width="15" height="15" fill="currentColor"></rect>
        <path d="M11.9868 6.66418C11.9868 6.74054 11.9868 6.82384 11.9868 6.9002C11.9802 6.9002 11.9802 6.9002 11.9736 6.90715C11.934 6.87244 11.8944 6.84467 11.8614 6.80996C11.6106 6.58782 11.3401 6.38651 11.0431 6.23379C10.9903 6.20602 10.9441 6.17825 10.8847 6.16437C10.8781 6.15743 10.8715 6.15049 10.8649 6.15049C10.7527 6.10189 10.6405 6.06024 10.5217 6.03247C10.2644 5.97 10.007 5.96306 9.74961 6.01859C9.41964 6.08801 9.12267 6.24073 8.84549 6.4351C8.56832 6.62947 8.32415 6.85855 8.09317 7.10846C8.05357 7.15011 8.05357 7.15011 8.02717 7.09458C7.90179 6.82384 7.7698 6.56005 7.59822 6.31709C7.46623 6.12966 7.32104 5.96306 7.13626 5.8381C6.94488 5.71315 6.7403 5.6715 6.52252 5.72703C6.25194 5.79645 6.03416 5.96306 5.82958 6.15049C5.7042 6.25461 5.592 6.36568 5.47981 6.47675C5.37422 6.57394 5.27523 6.67807 5.16304 6.77525C5.14325 6.79608 5.13005 6.78913 5.11685 6.77525C5.01126 6.65724 4.89907 6.55311 4.76708 6.47675C4.5757 6.36568 4.37112 6.3518 4.16654 6.42816C3.99496 6.49064 3.83657 6.58782 3.68479 6.68501C3.62539 6.72666 3.56599 6.76831 3.5 6.80302C3.5 6.79608 3.5 6.78913 3.5 6.78913C3.5066 6.77525 3.5066 6.76137 3.5066 6.75443C3.5132 6.46287 3.5396 6.17131 3.5858 5.87975C3.64519 5.48407 3.73758 5.09533 3.90916 4.72741C4.03455 4.45668 4.19954 4.21371 4.41731 4.00546C4.70109 3.73473 5.03106 3.56812 5.39402 3.45705C5.78339 3.33904 6.18595 3.29045 6.59511 3.26962C6.75349 3.26268 6.91848 3.25574 7.07686 3.2488C7.15606 3.28351 7.23525 3.30433 7.32104 3.3321C7.43983 3.36681 7.55862 3.40846 7.67081 3.44317C7.7302 3.46399 7.7896 3.49176 7.84899 3.51259C8.07997 3.60283 8.30435 3.7139 8.50233 3.87356C8.55513 3.91521 8.60132 3.95686 8.65412 4.00546C8.64092 3.96381 8.62772 3.9291 8.61452 3.89439C8.52872 3.65142 8.39674 3.45011 8.18556 3.31822C8.09977 3.26268 8.00078 3.21409 7.91498 3.1655C7.92158 3.1655 7.93478 3.1655 7.94138 3.15855C8.22516 3.10996 8.50893 3.08219 8.7927 3.06831C9.03688 3.06137 9.28765 3.06137 9.53183 3.08913C9.8156 3.12384 10.0994 3.17938 10.37 3.28351C10.7725 3.43623 11.1157 3.68613 11.3797 4.04017C11.6106 4.35255 11.7558 4.70658 11.8548 5.08144C11.9472 5.4563 11.9868 5.84504 12 6.22685C11.9868 6.37262 11.9868 6.5184 11.9868 6.66418Z" fill="currentColor"></path>
        <path d="M11.9868 6.22681H11.9934C11.9934 6.37259 11.9934 6.51836 11.9934 6.66414H11.9868C11.9868 6.51836 11.9868 6.37259 11.9868 6.22681Z" fill="currentColor"></path>
        <path d="M9.71001 0V0.00694173C9.61761 0.00694173 9.52522 0.00694173 9.43283 0.00694173C9.43283 0.00694173 9.43283 0.00694184 9.43283 0C9.52522 0 9.61761 0 9.71001 0Z" fill="currentColor"></path>
        <path d="M9.89479 12.3703C10.0532 12.3009 10.205 12.2245 10.3501 12.1343C10.5217 12.0232 10.6867 11.9052 10.8517 11.7802C10.9903 11.6692 11.1223 11.5581 11.2477 11.447C11.3203 11.3776 11.3994 11.3151 11.472 11.2457C11.4852 11.2318 11.4852 11.2388 11.4918 11.2527C11.5182 11.3637 11.538 11.4679 11.5578 11.5789C11.5842 11.7247 11.6106 11.8774 11.6238 12.0302C11.6436 12.2037 11.6502 12.3772 11.637 12.5577C11.6238 12.7729 11.5842 12.9881 11.5182 13.1964C11.472 13.3213 11.4192 13.4393 11.3532 13.5504C11.2675 13.6962 11.1619 13.8211 11.0431 13.9392C10.8979 14.078 10.7395 14.196 10.5679 14.2932C10.3369 14.432 10.0862 14.5292 9.83539 14.6125C9.59121 14.6889 9.34704 14.7444 9.09626 14.793C9.03027 14.8069 8.95767 14.8208 8.89168 14.8138C8.74649 14.8069 8.60791 14.7722 8.46932 14.7166C8.26474 14.6333 8.07996 14.5014 7.88198 14.4043C7.76979 14.3487 7.6576 14.314 7.53881 14.3001C7.38042 14.2863 7.24844 14.3487 7.13625 14.4598C7.05046 14.5431 6.97126 14.6333 6.89207 14.7166C6.75348 14.8624 6.5885 14.9596 6.39712 14.9874C6.27173 15.0082 6.13974 15.0013 6.01435 14.9804C5.83617 14.9527 5.65799 14.911 5.4864 14.8555C5.23563 14.7722 5.00465 14.6472 4.79347 14.4806C4.59549 14.321 4.4371 14.1266 4.30511 13.8975C4.17972 13.6684 4.09393 13.4255 4.04114 13.1686C4.01474 13.0575 4.00154 12.9395 3.99494 12.8285C3.98174 12.6688 3.96854 12.5091 3.97514 12.3425C3.98174 12.1135 3.99494 11.8913 4.02794 11.6553C4.05434 11.6761 4.07414 11.7039 4.10053 11.7247C4.23912 11.8566 4.3909 11.9746 4.55589 12.0787C4.74067 12.1898 4.93205 12.2801 5.14323 12.3356C5.28182 12.3772 5.42701 12.3981 5.57219 12.412C5.69098 12.4189 5.80977 12.4258 5.92856 12.4189C6.06715 12.412 6.20573 12.3981 6.34432 12.3634C6.36412 12.3634 6.37732 12.3634 6.39712 12.3564C6.5225 12.3287 6.64789 12.3009 6.76668 12.2592C6.90527 12.2176 7.05046 12.169 7.18244 12.1135C7.31443 12.0579 7.44642 12.0024 7.57841 11.9469C7.618 11.926 7.6378 11.9399 7.67079 11.9607C7.88857 12.1412 8.12615 12.2939 8.38353 12.3981C8.6673 12.5161 8.96427 12.5716 9.26784 12.5438C9.47902 12.5091 9.6902 12.4536 9.89479 12.3703Z" fill="currentColor"></path>
        <path d="M9.8948 12.3704C9.69022 12.4537 9.47904 12.5162 9.25466 12.537C8.94449 12.5648 8.65412 12.5092 8.37035 12.3912C8.11297 12.2871 7.87539 12.1344 7.65761 11.9539C7.62462 11.9261 7.60482 11.9192 7.56523 11.94C7.43324 12.0025 7.30125 12.058 7.16926 12.1066C7.03068 12.1621 6.89209 12.2107 6.7535 12.2524C6.62811 12.2871 6.50932 12.3218 6.38394 12.3496C6.36414 12.3565 6.35094 12.3565 6.33114 12.3565C6.37734 12.301 6.41693 12.2524 6.46313 12.1968C6.64131 11.9816 6.7601 11.7387 6.83269 11.4679C6.93168 11.1 7.03728 10.7252 7.11647 10.3503C7.17586 10.0726 7.22866 9.79496 7.26825 9.51729C7.29465 9.31598 7.30785 9.11466 7.32105 8.91335C7.33425 8.72592 7.32765 8.53849 7.31445 8.358C7.28145 7.79572 7.16266 7.25425 6.94488 6.74056C6.81289 6.43512 6.59511 6.21992 6.27174 6.13662C6.13316 6.10191 6.00117 6.10885 5.86259 6.15744C5.84939 6.16438 5.84279 6.16438 5.82959 6.16438C6.03417 5.97695 6.25195 5.81035 6.52252 5.74093C6.7403 5.6854 6.94488 5.72705 7.13627 5.852C7.32765 5.97695 7.47283 6.14356 7.59822 6.33099C7.76981 6.57395 7.90179 6.83774 8.02718 7.10847C8.05358 7.16401 8.05358 7.16401 8.09318 7.12236C8.32415 6.87245 8.57493 6.64337 8.8455 6.449C9.12268 6.25463 9.41965 6.10191 9.74962 6.03249C10.007 5.97695 10.2644 5.9839 10.5217 6.04637C10.6405 6.07414 10.7527 6.11579 10.8649 6.16438C10.8715 6.17133 10.8847 6.17133 10.8847 6.17827C10.5547 6.18521 10.271 6.3171 10.0136 6.51842C9.8882 6.6156 9.77602 6.72667 9.69023 6.86551C9.61763 6.97658 9.56483 7.10153 9.50544 7.22648C9.39325 7.47639 9.30086 7.73324 9.23487 8.00397C9.17547 8.23305 9.14247 8.46907 9.12268 8.7051C9.10948 8.88558 9.10288 9.07301 9.10948 9.2535C9.11608 9.47564 9.13588 9.70472 9.16227 9.92686C9.20847 10.3017 9.27446 10.6766 9.32726 11.0445C9.36026 11.2527 9.38665 11.461 9.41965 11.6623C9.46584 11.9608 9.62423 12.1899 9.85521 12.3634C9.87501 12.3565 9.88161 12.3634 9.8948 12.3704Z" fill="currentColor"></path>
        <path d="M9.43284 0.00695801C9.52523 0.00695801 9.61762 0.00695801 9.71001 0.00695801C9.93439 0.0208417 10.1588 0.0555509 10.3765 0.131911C10.5415 0.194388 10.5811 0.305457 10.4821 0.458177C10.4095 0.569247 10.3106 0.645607 10.2116 0.715025C10.0796 0.812211 9.93439 0.888571 9.78261 0.944106C9.62422 1.00658 9.47244 0.944106 9.38004 0.777502C9.34705 0.728909 9.32725 0.673374 9.31405 0.610898C9.30745 0.590072 9.30085 0.583131 9.28765 0.583131C8.93789 0.520654 8.62772 0.603956 8.37034 0.867746C8.15916 1.08294 8.03377 1.34673 7.94798 1.63829C7.86879 1.90208 7.82919 2.16587 7.81599 2.4366C7.80279 2.67957 7.82259 2.92253 7.85559 3.15855C7.86219 3.2002 7.87539 3.24185 7.87539 3.28351C7.88199 3.3321 7.86879 3.38069 7.82259 3.40846C7.77639 3.44317 7.7302 3.43623 7.67741 3.43623C7.55862 3.40152 7.43983 3.35987 7.32764 3.32516C7.32764 3.29739 7.32764 3.26962 7.32764 3.23491C7.32764 3.10996 7.32764 2.97806 7.33424 2.85311C7.36064 2.34636 7.43323 1.84654 7.61801 1.3745C7.7566 1.02047 7.95458 0.715025 8.23175 0.472061C8.46273 0.270748 8.72671 0.138853 9.01708 0.0694346C9.14907 0.0347255 9.28765 0.0138998 9.43284 0.00695801Z" fill="currentColor"></path>
        <path d="M7.66422 3.44319C7.71701 3.44319 7.76321 3.45013 7.8094 3.41542C7.849 3.38071 7.8688 3.33906 7.8622 3.29046C7.8556 3.24881 7.849 3.20716 7.8424 3.16551C7.8622 3.16551 7.88859 3.15857 7.90839 3.15857C8.00078 3.2141 8.09317 3.25576 8.17897 3.31129C8.39015 3.45013 8.52213 3.65144 8.60792 3.88746C8.62112 3.92217 8.63432 3.96382 8.64752 3.99853C8.59472 3.95688 8.54853 3.90829 8.49573 3.86664C8.29775 3.70697 8.07998 3.59591 7.8424 3.50566C7.783 3.49178 7.72361 3.46401 7.66422 3.44319Z" fill="currentColor"></path>
        <path d="M7.30784 3.24182C7.30784 3.26959 7.30784 3.29736 7.30784 3.33206C7.22864 3.3043 7.14285 3.28347 7.06366 3.24876C7.14945 3.24876 7.22864 3.24182 7.30784 3.24182Z" fill="currentColor"></path>
        </g>
        <defs>
        <clipPath id="clip0_1_2923">
            <rect width="15" height="15" fill="currentColor"></rect>
        </clipPath>
        </defs>
    </symbol>

    <symbol id="icon-multiqc" viewBox="0 0 15 15" fill="none">
        <path d="M2.7648 7.1766C2.922 4.8096 4.8234 2.913 7.1928 2.7642V0C3.2952 0.1536 0.162 3.2808 0 7.1766H2.7648Z" fill="#F18046"/>
        <path d="M7.1766 12.2353C4.8096 12.0781 2.913 10.1767 2.7642 7.80725H0C0.1536 11.7049 3.2808 14.8381 7.1766 15.0001V12.2353Z" fill="#F18046"/>
        <path d="M7.82339 2.7648C10.1904 2.922 12.087 4.8234 12.2358 7.1928H15C14.8464 3.2952 11.7192 0.162 7.82339 0V2.7648Z" fill="#F18046"/>
        <path d="M15 12.2353C12.633 12.0781 10.7364 10.1767 10.5876 7.80725H7.82339C7.97699 11.7049 11.1042 14.8381 15 15.0001V12.2353Z" fill="#F18046"/>
    </symbol>

    <symbol id="icon-seqera" viewBox="0 0 15 15" fill="none">
        <g clip-path="url(#clip0_1_3012)">
        <path d="M12.7342 7.50697L12.7552 7.51509L12.7762 7.52321L12.7961 7.53249L12.8159 7.54293L12.8351 7.55337L12.8543 7.56497L12.8723 7.57831L12.8897 7.59107L12.9059 7.60556L12.9227 7.62006L12.9383 7.6363L12.9527 7.65196L12.9671 7.66936L12.9797 7.68676L12.9923 7.70532L13.0031 7.72329L13.0133 7.74301L13.0229 7.76215L13.0313 7.78187L13.0397 7.80217L13.0457 7.82305L13.0517 7.84335L13.0559 7.86538L13.0601 7.88626L13.0625 7.9083L13.0637 7.92918L13.0643 7.95064L13.0637 7.97268L13.0625 7.99413L13.0601 8.01559L13.0559 8.03705L13.0517 8.05793L13.0457 8.07939L13.0397 8.09969L13.0313 8.12056L13.0229 8.14028L13.0133 8.15942L13.0031 8.17856L12.9923 8.19712L12.9797 8.21568L12.9671 8.23307L12.9527 8.24931L12.9383 8.26613L12.9227 8.28121L12.9059 8.29687L12.8897 8.31137L12.8723 8.32413L12.8543 8.33631L12.8351 8.34907L12.8159 8.3595L12.7961 8.36994L12.7762 8.37864L12.7552 8.38734L12.7342 8.3943L12.7132 8.40126L12.6916 8.4059L12.67 8.41112L12.6472 8.41402L12.6256 8.41634L12.6028 8.41866H12.5992L12.622 8.41808L12.6628 8.41634L12.7036 8.41402L12.7444 8.41054L12.7846 8.40532L12.8255 8.39952L12.8657 8.39314L12.9059 8.38502L12.9455 8.37632L12.9857 8.36646L13.0253 8.35544L13.0643 8.34327L13.1028 8.33051L13.1412 8.31659L13.179 8.30151L13.2168 8.28585L13.254 8.26903L13.2906 8.25105L13.3266 8.23249L13.3621 8.21278L13.3969 8.1919L13.4317 8.17102L13.4653 8.14898L13.4989 8.1252L13.5313 8.10084L13.5631 8.07649L13.5943 8.05039L13.625 8.02371L13.6544 7.99703L13.6838 7.96862L13.712 7.9402L13.739 7.91062L13.7654 7.88046L13.7912 7.84973L13.8164 7.81783L13.8404 7.78593L13.8632 7.75345L13.886 7.71982L13.9071 7.68618L13.9275 7.65138L13.9473 7.61658L13.9653 7.58179L13.9827 7.54583L13.9989 7.50929L14.0145 7.47276L14.0289 7.43564L14.0427 7.39794L14.0547 7.36024L14.0661 7.32197L14.0763 7.28369L14.0853 7.24541L14.0937 7.20598L14.1009 7.16712L14.1069 7.12826L14.1111 7.08883L14.1153 7.04939L14.1183 7.00937L14.1195 6.96994L14.1201 6.9305L14.1195 6.89106L14.1183 6.85104L14.1153 6.81161L14.1111 6.77217L14.1069 6.73331L14.1009 6.69388L14.0937 6.65444L14.0853 6.61616L14.0763 6.57731L14.0685 6.54773H12.6094L12.5806 6.54831H9.12933L12.709 7.50001L12.7342 7.50697Z" fill="#160F26"/>
        <path d="M14.9976 7.85205L14.9946 7.80217L14.991 7.75287L14.9862 7.703L14.9802 7.6537L14.9736 7.60499L14.9652 7.55569L14.9556 7.50697L14.946 7.45826L14.9346 7.41012L14.922 7.36198L14.9088 7.31385L14.8938 7.26629L14.8782 7.21932L14.862 7.17176L14.8439 7.12536L14.8253 7.07955L14.8055 7.03315L14.7851 6.98791L14.7635 6.94268L14.7413 6.89802L14.7173 6.85453L14.6927 6.81045L14.6669 6.76753L14.6405 6.72462L14.6135 6.68286L14.5847 6.6411L14.5558 6.60051L14.5258 6.56049L14.5156 6.54773H14.0685L14.0763 6.57731L14.0853 6.61616L14.0937 6.65444L14.1009 6.69388L14.1069 6.73331L14.1111 6.77217L14.1153 6.81161L14.1183 6.85104L14.1195 6.89106L14.1201 6.9305L14.1195 6.96994L14.1183 7.00937L14.1153 7.04939L14.1111 7.08883L14.1069 7.12826L14.1009 7.16712L14.0937 7.20598L14.0853 7.24541L14.0763 7.28369L14.0661 7.32197L14.0547 7.36024L14.0427 7.39794L14.0289 7.43564L14.0144 7.47276L13.9988 7.50929L13.9826 7.54583L13.9652 7.58179L13.9472 7.61658L13.9274 7.65138L13.907 7.68618L13.886 7.71982L13.8632 7.75345L13.8404 7.78593L13.8164 7.81783L13.7912 7.84973L13.7654 7.88046L13.7389 7.91062L13.7119 7.9402L13.6837 7.96862L13.6543 7.99703L13.6249 8.02371L13.5943 8.05039L13.5631 8.07649L13.5313 8.10084L13.4989 8.1252L13.4652 8.14898L13.4316 8.17102L13.3968 8.1919L13.362 8.21278L13.3266 8.23249L13.2906 8.25105L13.254 8.26903L13.2168 8.28585L13.1789 8.30151L13.1411 8.31659L13.1027 8.33051L13.0643 8.34327L13.0253 8.35545L12.9857 8.36646L12.9455 8.37632L12.9058 8.38502L12.8656 8.39314L12.8254 8.39952L12.7846 8.40532L12.7444 8.41054L12.7036 8.41402L12.6628 8.41634L12.6219 8.41808L12.5805 8.41866H0V10.2896H12.5805L12.6321 10.289L12.6832 10.2879L12.7348 10.285L12.7858 10.2809L12.8368 10.2763L12.8878 10.271L12.9389 10.2635L12.9893 10.256L13.0397 10.2473L13.0901 10.2368L13.1405 10.2258L13.1897 10.2142L13.2396 10.2009L13.2894 10.1869L13.338 10.1724L13.3866 10.1556L13.4346 10.1388L13.4827 10.1208L13.5301 10.1023L13.5769 10.0825L13.6237 10.0611L13.6699 10.0391L13.7155 10.0164L13.7606 9.99265L13.805 9.9683L13.8494 9.9422L13.892 9.9161L13.9352 9.88884L13.9778 9.86042L14.0192 9.83143L14.0601 9.80127L14.1003 9.77053L14.1405 9.73863L14.1795 9.70616L14.2173 9.67368L14.2545 9.63946L14.2911 9.60466L14.3272 9.56929L14.362 9.53275L14.3968 9.49621L14.4304 9.45852L14.4628 9.42024L14.4946 9.38138L14.5258 9.34137L14.5558 9.30135L14.5847 9.26075L14.6135 9.219L14.6405 9.17724L14.6669 9.13432L14.6927 9.09141L14.7173 9.04791L14.7413 9.00383L14.7635 8.95918L14.7851 8.91452L14.8055 8.8687L14.8253 8.82289L14.8439 8.77707L14.862 8.73009L14.8782 8.68312L14.8938 8.63614L14.9088 8.58801L14.922 8.54045L14.9346 8.49231L14.946 8.4436L14.9556 8.39546L14.9652 8.34675L14.9736 8.29745L14.9802 8.24815L14.9862 8.19886L14.991 8.14956L14.9946 8.09969L14.9976 8.05039L14.9994 8.00109L15 7.95122L14.9994 7.90134L14.9976 7.85205Z" fill="#FA6863"/>
        <path d="M2.26584 6.99143L2.24484 6.98389L2.22383 6.97577L2.20402 6.96649L2.18361 6.95605L2.16501 6.94503L2.1458 6.93343L2.12779 6.92068L2.11039 6.90734L2.09358 6.89284L2.07737 6.87834L2.06177 6.86268L2.04736 6.84644L2.03296 6.82904L2.02035 6.81164L2.00775 6.79367L1.99695 6.77569L1.98674 6.75597L1.97654 6.73625L1.96874 6.71711L1.96033 6.69681L1.95433 6.67535L1.94833 6.65506L1.94353 6.6336L1.93993 6.61272L1.93752 6.59068L1.93632 6.5698L1.93572 6.54777L1.93632 6.52631L1.93752 6.50427L1.93993 6.48339L1.94353 6.46193L1.94833 6.44047L1.95433 6.4196L1.96033 6.3993L1.96874 6.37842L1.97654 6.3587L1.98674 6.33898L1.99695 6.32042L2.00775 6.30128L2.02035 6.28331L2.03296 6.26591L2.04736 6.24909L2.06177 6.23285L2.07737 6.21719L2.09358 6.20211L2.11039 6.18761L2.12779 6.17485L2.1458 6.1621L2.16501 6.14992L2.18361 6.1389L2.20402 6.12904L2.22383 6.12034L2.24484 6.11164L2.26584 6.1041L2.28685 6.09772L2.30846 6.0925L2.33007 6.08786L2.35287 6.08496L2.37448 6.08264L2.39669 6.08032H2.40089H2.37808L2.33727 6.08206L2.29645 6.08496L2.25564 6.08844L2.21542 6.09308L2.17461 6.09888L2.1338 6.10584L2.09418 6.11338L2.05397 6.12266L2.01435 6.13252L1.97474 6.14354L1.93572 6.15572L1.89731 6.16848L1.8583 6.18181L1.82108 6.19689L1.78327 6.21313L1.74606 6.22995L1.70944 6.24793L1.67283 6.26649L1.63802 6.28563L1.6032 6.3065L1.56839 6.32796L1.53418 6.35L1.50117 6.37378L1.46816 6.39756L1.43694 6.42249L1.40573 6.44801L1.37512 6.47469L1.34571 6.50195L1.3163 6.52979L1.28809 6.55878L1.26108 6.58778L1.23407 6.61794L1.20886 6.64926L1.18305 6.68057L1.15964 6.71247L1.13624 6.74553L1.11403 6.77859L1.09302 6.8128L1.07261 6.84702L1.05281 6.8824L1.0348 6.9172L1.01739 6.95315L1.00119 6.98969L0.985582 7.02623L0.971177 7.06334L0.957372 7.10104L0.945367 7.13874L0.933963 7.17701L0.92376 7.21471L0.914756 7.25357L0.906353 7.29243L0.899151 7.33186L0.893149 7.37072L0.888947 7.41016L0.884746 7.44901L0.881744 7.48903L0.880544 7.52847L0.879944 7.5679L0.880544 7.60792L0.881744 7.64736L0.884746 7.68679L0.888947 7.72623L0.893149 7.76567L0.899151 7.8051L0.906353 7.84396L0.914756 7.88282L0.92376 7.92109L0.931562 7.95125H2.39069L2.4195 7.95067H5.87074L2.29105 6.99897L2.26584 6.99143Z" fill="#160F26"/>
        <path d="M0.00240086 6.6469L0.00480173 6.69677L0.00900324 6.74607L0.013805 6.79536L0.0198071 6.84466L0.0264095 6.89396L0.0348125 6.94267L0.0438158 6.99197L0.0540194 7.04068L0.0654236 7.08882L0.0780281 7.13696L0.0912328 7.18509L0.106238 7.23265L0.121844 7.27962L0.13805 7.3266L0.156056 7.37358L0.174663 7.41939L0.19447 7.46579L0.214877 7.51103L0.236485 7.55626L0.258693 7.60034L0.282702 7.64442L0.307311 7.68849L0.33312 7.73141L0.359529 7.77374L0.386539 7.8155L0.414749 7.85726L0.44416 7.89844L0.474171 7.93845L0.484374 7.95121H0.931535L0.923733 7.92105L0.914729 7.88278L0.906326 7.84392L0.899124 7.80506L0.893122 7.76563L0.88892 7.72619L0.884719 7.68675L0.881717 7.64732L0.880517 7.60788L0.879917 7.56786L0.880517 7.52842L0.881717 7.48899L0.884719 7.44897L0.88892 7.41011L0.893122 7.37068L0.899124 7.33182L0.906326 7.29238L0.914729 7.25353L0.923733 7.21467L0.933936 7.17697L0.94534 7.1387L0.957345 7.101L0.97115 7.0633L0.985555 7.02618L1.00116 6.98965L1.01737 6.95311L1.03477 6.91715L1.05278 6.88236L1.07259 6.84698L1.09299 6.81276L1.114 6.77854L1.13621 6.74549L1.15962 6.71243L1.18303 6.68053L1.20884 6.64922L1.23404 6.6179L1.26105 6.58774L1.28806 6.55874L1.31627 6.52974L1.34568 6.50191L1.3751 6.47465L1.40571 6.44797L1.43692 6.42245L1.46813 6.39752L1.50114 6.37374L1.53415 6.34996L1.56836 6.32792L1.60318 6.30646L1.63799 6.28558L1.6728 6.26645L1.70942 6.24789L1.74603 6.22991L1.78324 6.21309L1.82106 6.19685L1.85827 6.18177L1.89728 6.16843L1.9357 6.15567L1.97471 6.1435L2.01433 6.13248L2.05394 6.12262L2.09415 6.11334L2.13377 6.1058L2.17458 6.09884L2.2154 6.09304L2.25561 6.0884L2.29643 6.08492L2.33724 6.08202L2.37806 6.08028L2.41947 6.0797H15V4.20935H2.41947L2.36785 4.20993L2.31683 4.21109L2.26522 4.21399L2.2142 4.21747L2.16258 4.22211L2.11216 4.22791L2.06114 4.23487L2.01072 4.24241L1.96031 4.25169L1.90929 4.26155L1.85947 4.27257L1.80965 4.28474L1.76043 4.2975L1.71062 4.312L1.662 4.3265L1.61338 4.34274L1.56536 4.35956L1.51735 4.37812L1.46993 4.39668L1.42311 4.41639L1.3763 4.43785L1.33008 4.45989L1.28446 4.48193L1.23945 4.50629L1.19503 4.53064L1.15061 4.55616L1.1074 4.58284L1.06418 4.6101L1.02217 4.63852L0.980753 4.66751L0.939338 4.69709L0.899724 4.72783L0.859509 4.75973L0.820495 4.7922L0.782682 4.82526L0.745468 4.85948L0.708855 4.8937L0.672842 4.92965L0.637429 4.96619L0.603217 5.00273L0.569605 5.04042L0.537193 5.0787L0.505382 5.11756L0.474171 5.15699L0.44416 5.19759L0.414749 5.23819L0.386539 5.27936L0.359529 5.3217L0.33312 5.36462L0.307311 5.40753L0.282702 5.45045L0.258693 5.49453L0.236485 5.53976L0.214877 5.58442L0.19447 5.63024L0.174663 5.67547L0.156056 5.72187L0.13805 5.76827L0.121844 5.81524L0.106238 5.8628L0.0912328 5.91035L0.0780281 5.95849L0.0654236 6.00663L0.0540194 6.05534L0.0438158 6.10348L0.0348125 6.15219L0.0264095 6.20149L0.0198071 6.25079L0.013805 6.30008L0.00900324 6.34938L0.00480173 6.39868L0.00240086 6.44797L0 6.49785V6.54772V6.5976L0.00240086 6.6469Z" fill="#F18046"/>
        <path d="M2.26584 2.78266L2.24484 2.77454L2.22383 2.76584L2.20342 2.75714L2.18421 2.7467L2.16441 2.73626L2.1458 2.72466L2.12779 2.71132L2.10979 2.69857L2.09298 2.68407L2.07677 2.66957L2.06177 2.65333L2.04736 2.63767L2.03296 2.62027L2.01975 2.60287L2.00775 2.58431L1.99635 2.56576L1.98614 2.54662L1.97594 2.52748L1.96814 2.50776L1.96033 2.48688L1.95373 2.46658L1.94833 2.44629L1.94353 2.42425L1.93993 2.40337L1.93692 2.38133L1.93632 2.35987L1.93572 2.33783L1.93632 2.31638L1.93692 2.2955L1.93993 2.27404L1.94353 2.25258L1.94833 2.2317L1.95373 2.21024L1.96033 2.18937L1.96814 2.16907L1.97594 2.14935L1.98614 2.13021L1.99635 2.11049L2.00775 2.09251L2.01975 2.07396L2.03296 2.05656L2.04736 2.04032L2.06177 2.0235L2.07677 2.00726L2.09298 1.99276L2.10979 1.97826L2.12779 1.9655L2.1458 1.95333L2.16441 1.94057L2.18421 1.93013L2.20342 1.91969L2.22383 1.91041L2.24484 1.90229L2.26584 1.89533L2.28685 1.88837L2.30846 1.88257L2.33067 1.87851L2.35227 1.87503L2.37448 1.87271L2.39729 1.87097H2.40449H2.37808L2.33727 1.87271L2.29645 1.87561L2.25564 1.87909L2.21542 1.88431L2.17461 1.89011L2.1338 1.89649L2.09418 1.90461L2.05397 1.91331L2.01435 1.92317L1.97474 1.93419L1.93572 1.94637L1.89731 1.95912L1.8583 1.97304L1.82108 1.98754L1.78327 2.00378L1.74606 2.0206L1.70944 2.03858L1.67283 2.05714L1.63802 2.07628L1.6026 2.09715L1.56839 2.11861L1.53418 2.14065L1.50117 2.16443L1.46816 2.18821L1.43634 2.21314L1.40573 2.23924L1.37512 2.26534L1.34511 2.2926L1.3163 2.32044L1.28809 2.34943L1.26108 2.37901L1.23407 2.40917L1.20886 2.43991L1.18305 2.4718L1.15964 2.5037L1.13624 2.53618L1.11403 2.56924L1.09302 2.60345L1.07261 2.63767L1.05281 2.67305L1.0348 2.70784L1.01739 2.7438L1.00119 2.78034L0.985582 2.81688L0.971177 2.85399L0.957372 2.89169L0.945367 2.92939L0.933963 2.96766L0.92376 3.00594L0.914156 3.04422L0.906353 3.08307L0.899151 3.12251L0.893149 3.16137L0.888347 3.20081L0.884746 3.23966L0.881744 3.27968L0.880544 3.3197L0.879944 3.35913L0.880544 3.39857L0.881744 3.43859L0.884746 3.47802L0.888347 3.51746L0.893149 3.55632L0.899151 3.59575L0.906353 3.63519L0.914156 3.67347L0.92376 3.71232L0.933963 3.7506L0.945367 3.7883L0.957372 3.82658L0.971177 3.86369L0.985582 3.90081L1.00119 3.93735L1.01739 3.97388L1.0348 4.00984L1.05281 4.04522L1.06481 4.06552L1.06601 4.06494L1.11643 4.04L1.16685 4.01622L1.21787 3.99302L1.26948 3.97156L1.3211 3.94953L1.37392 3.92981L1.42614 3.91125L1.47956 3.89211L1.53298 3.87587L1.587 3.85963L1.64102 3.84455L1.69504 3.83005L1.74966 3.81672L1.80488 3.80512L1.8601 3.79468L1.91472 3.78424L1.97054 3.77554L2.02636 3.76742L2.08218 3.76046L2.1386 3.75466L2.19442 3.75002L2.25084 3.74596L2.30606 3.74364L2.36368 3.74248L2.4195 3.74132H5.87074L2.29045 2.78962L2.26584 2.78266Z" fill="#160F26"/>
        <path d="M12.5806 12.6291H12.622L12.6628 12.6267L12.7036 12.6244L12.7444 12.6209L12.7852 12.6157L12.8261 12.6099L12.8663 12.6035L12.9065 12.5954L12.9461 12.5867L12.9863 12.5769L13.0253 12.5658L13.0643 12.5537L13.1034 12.5409L13.1418 12.527L13.179 12.5119L13.2168 12.4962L13.254 12.4794L13.2906 12.4614L13.3272 12.4429L13.3627 12.4232L13.3975 12.4023L13.4317 12.3808L13.4659 12.3588L13.4995 12.3356L13.5319 12.3112L13.5637 12.2869L13.5949 12.2608L13.625 12.2341L13.655 12.2074L13.6838 12.179L13.712 12.1506L13.7396 12.121L13.766 12.0909L13.7918 12.0601L13.817 12.0282L13.8404 11.9963L13.8638 11.9638L13.886 11.9302L13.9071 11.8966L13.9275 11.8618L13.9473 11.827L13.9659 11.7916L13.9833 11.7562L13.9989 11.7197L14.0151 11.6826L14.0289 11.646L14.0427 11.6083L14.0553 11.5706L14.0661 11.5324L14.0769 11.4941L14.0859 11.4558L14.0937 11.4164L14.1009 11.3775L14.1069 11.3387L14.1117 11.2986L14.1159 11.2598L14.1183 11.2198L14.1201 11.1803V11.1409V11.1015L14.1183 11.0614L14.1159 11.022L14.1117 10.9826L14.1069 10.9437L14.1009 10.9043L14.0937 10.8648L14.0859 10.8266L14.0769 10.7877L14.0661 10.7494L14.0553 10.7117L14.0427 10.6735L14.0289 10.6358L14.0151 10.5992L13.9989 10.5627L13.9833 10.5261L13.9659 10.4902L13.9473 10.4548L13.9353 10.4333L13.9341 10.4339L13.8836 10.4589L13.8332 10.4826L13.7822 10.5058L13.7306 10.5279L13.6784 10.5488L13.6262 10.5691L13.5739 10.5876L13.5205 10.6062L13.4665 10.6236L13.4131 10.6392L13.3597 10.6543L13.3044 10.6688L13.2504 10.6816L13.1952 10.6937L13.14 10.7048L13.0848 10.7146L13.0295 10.7233L12.9737 10.7314L12.9179 10.7384L12.8621 10.7442L12.8057 10.7488L12.7492 10.7523L12.6928 10.7552L12.637 10.757L12.5806 10.7575H9.12933L12.709 11.7092L12.7342 11.7168L12.7552 11.7243L12.7762 11.7324L12.7961 11.7417L12.8159 11.7522L12.8351 11.7632L12.8543 11.7748L12.8723 11.7875L12.8897 11.8009L12.9059 11.8154L12.9227 11.8299L12.9383 11.8455L12.9527 11.8618L12.9671 11.8792L12.9797 11.8966L12.9923 11.9146L13.0031 11.9325L13.0133 11.9522L13.0229 11.972L13.0313 11.9911L13.0397 12.0114L13.0457 12.0329L13.0517 12.0532L13.0559 12.0746L13.0601 12.0955L13.0625 12.1175L13.0637 12.1384L13.0643 12.1605L13.0637 12.1819L13.0625 12.2039L13.0601 12.2248L13.0559 12.2463L13.0517 12.2677L13.0457 12.2886L13.0397 12.3089L13.0313 12.3298L13.0229 12.3495L13.0133 12.3692L13.0031 12.3878L12.9923 12.4069L12.9797 12.4249L12.9671 12.4423L12.9527 12.4591L12.9383 12.4754L12.9227 12.491L12.9059 12.5061L12.8897 12.5206L12.8723 12.5334L12.8543 12.5461L12.8351 12.5583L12.8159 12.5693L12.7961 12.5792L12.7762 12.5879L12.7552 12.5966L12.7342 12.6041L12.7132 12.6105L12.6916 12.6157L12.67 12.6204L12.6472 12.6233L12.6256 12.6256L12.6028 12.6279L12.5806 12.6285" fill="#160F26"/>
        <path d="M14.9976 12.0618L14.9952 12.0126L14.9916 11.9633L14.9862 11.9134L14.9808 11.8641L14.9736 11.8154L14.9652 11.7661L14.9562 11.7174L14.946 11.6686L14.9346 11.6199L14.922 11.5724L14.9088 11.5242L14.8944 11.4761L14.8788 11.4297L14.862 11.3821L14.8439 11.3357L14.8259 11.2899L14.8061 11.2435L14.7851 11.1983L14.7641 11.1531L14.7413 11.1084L14.7173 11.0649L14.6933 11.0208L14.6675 10.9779L14.6405 10.935L14.6135 10.8932L14.5853 10.8515L14.5558 10.8109L14.5258 10.7709L14.4946 10.7309L14.4634 10.6926L14.4304 10.6537L14.3968 10.6166L14.3626 10.5795L14.3272 10.5435L14.2917 10.5076L14.2545 10.4734L14.2173 10.4391L14.1795 10.4061L14.1405 10.3736L14.1009 10.3417L14.0985 10.34L14.0421 10.373L13.9922 10.4003L13.9406 10.4275L13.934 10.431L13.9472 10.4548L13.9658 10.4902L13.9832 10.5261L13.9988 10.5627L14.015 10.5992L14.0289 10.6357L14.0427 10.6734L14.0553 10.7117L14.0661 10.7494L14.0769 10.7877L14.0859 10.8265L14.0937 10.8648L14.1009 10.9043L14.1069 10.9437L14.1117 10.9826L14.1159 11.022L14.1183 11.0614L14.1201 11.1014V11.1409V11.1803L14.1183 11.2198L14.1159 11.2598L14.1117 11.2986L14.1069 11.3386L14.1009 11.3775L14.0937 11.4164L14.0859 11.4558L14.0769 11.4941L14.0661 11.5324L14.0553 11.5706L14.0427 11.6083L14.0289 11.646L14.015 11.6826L13.9988 11.7197L13.9832 11.7562L13.9658 11.7916L13.9472 11.827L13.9274 11.8618L13.907 11.8966L13.886 11.9302L13.8638 11.9638L13.8404 11.9963L13.817 12.0282L13.7918 12.0601L13.766 12.0908L13.7395 12.121L13.7119 12.1506L13.6837 12.179L13.6549 12.2074L13.6249 12.2341L13.5949 12.2608L13.5637 12.2869L13.5319 12.3112L13.4995 12.3356L13.4658 12.3588L13.4316 12.3808L13.3974 12.4023L13.3626 12.4232L13.3272 12.4429L13.2906 12.4614L13.254 12.4794L13.2168 12.4962L13.1789 12.5119L13.1417 12.527L13.1033 12.5409L13.0643 12.5536L13.0253 12.5658L12.9863 12.5768L12.9461 12.5867L12.9064 12.5954L12.8662 12.6035L12.826 12.6099L12.7852 12.6157L12.7444 12.6209L12.7036 12.6244L12.6628 12.6267L12.6219 12.629H12.5805H0V14.5H12.5805L12.6321 14.4994L12.6832 14.4982L12.7348 14.4953L12.7858 14.4913L12.8374 14.4872L12.8884 14.4814L12.9395 14.4739L12.9899 14.4663L13.0403 14.4576L13.0907 14.4472L13.1405 14.4362L13.1903 14.4246L13.2396 14.4118L13.2894 14.3973L13.338 14.3828L13.3866 14.366L13.4352 14.3492L13.4833 14.3312L13.5307 14.3126L13.5775 14.2929L13.6243 14.2715L13.6699 14.2494L13.7161 14.2268L13.7606 14.203L13.8056 14.1787L13.8494 14.1532L13.8926 14.1259L13.9358 14.0992L13.9778 14.0708L14.0192 14.0412L14.0607 14.0117L14.1009 13.9809L14.1405 13.949L14.1795 13.9165L14.2173 13.8841L14.2545 13.8498L14.2917 13.815L14.3272 13.7797L14.3626 13.7431L14.3968 13.7066L14.4304 13.6689L14.4634 13.6306L14.4946 13.5918L14.5258 13.5523L14.5558 13.5117L14.5853 13.4711L14.6135 13.4294L14.6405 13.3876L14.6675 13.3447L14.6933 13.3018L14.7173 13.2583L14.7413 13.2142L14.7641 13.1696L14.7851 13.1249L14.8061 13.0791L14.8259 13.0333L14.8439 12.9875L14.862 12.9405L14.8788 12.8935L14.8944 12.8459L14.9088 12.7984L14.922 12.7508L14.9346 12.7021L14.946 12.654L14.9562 12.6058L14.9652 12.5565L14.9736 12.5078L14.9808 12.4585L14.9862 12.4092L14.9916 12.3599L14.9952 12.3101L14.9976 12.2608L15 12.2115V12.1616V12.1117L14.9976 12.0618Z" fill="#3D95FD"/>
        <path d="M0.00240086 2.43754L0.00480173 2.48742L0.00840303 2.53672L0.013805 2.58659L0.0198071 2.63589L0.0264095 2.68461L0.0348125 2.7339L0.0438158 2.78262L0.0540194 2.83133L0.0654236 2.87947L0.0780281 2.92761L0.0912328 2.97516L0.105638 3.0233L0.121844 3.07027L0.13805 3.11725L0.156056 3.16423L0.174063 3.21004L0.19387 3.25644L0.214877 3.30168L0.236485 3.34691L0.258693 3.39099L0.282702 3.43506L0.307311 3.47914L0.33252 3.52206L0.359529 3.56497L0.386539 3.60615L0.414749 3.64791L0.44416 3.68908L0.474171 3.7291L0.505382 3.76912L0.537193 3.8074L0.569605 3.84625L0.603217 3.88337L0.637429 3.92049L0.672842 3.95644L0.708855 3.99182L0.745468 4.02662L0.782682 4.06083L0.820495 4.09389L0.859509 4.12637L0.899724 4.15769L0.901525 4.15943L0.957945 4.12695L1.00776 4.09969L1.05938 4.07185L1.06658 4.06895L1.05278 4.04518L1.03477 4.0098L1.01737 3.97384L1.00116 3.9373L0.985555 3.90077L0.97115 3.86365L0.957345 3.82653L0.94534 3.78826L0.933936 3.75056L0.923733 3.71228L0.914129 3.67343L0.906326 3.63515L0.899124 3.59571L0.893122 3.55628L0.88832 3.51742L0.884719 3.47798L0.881717 3.43854L0.880517 3.39853L0.879917 3.35909L0.880517 3.31965L0.881717 3.27964L0.884719 3.23962L0.88832 3.20076L0.893122 3.16133L0.899124 3.12247L0.906326 3.08303L0.914129 3.04418L0.923733 3.0059L0.933936 2.96762L0.94534 2.92935L0.957345 2.89165L0.97115 2.85395L0.985555 2.81683L1.00116 2.7803L1.01737 2.74376L1.03477 2.7078L1.05278 2.67301L1.07259 2.63763L1.09299 2.60341L1.114 2.56919L1.13621 2.53614L1.15962 2.50366L1.18303 2.47176L1.20884 2.43986L1.23404 2.40913L1.26105 2.37897L1.28806 2.34939L1.31627 2.32039L1.34508 2.29256L1.3751 2.2653L1.40571 2.2392L1.43632 2.2131L1.46813 2.18816L1.50114 2.16439L1.53415 2.14061L1.56836 2.11857L1.60258 2.09711L1.63799 2.07623L1.6728 2.0571L1.70942 2.03854L1.74603 2.02056L1.78324 2.00374L1.82106 1.9875L1.85827 1.973L1.89728 1.95908L1.9357 1.94632L1.97471 1.93415L2.01433 1.92313L2.05394 1.91327L2.09415 1.90457L2.13377 1.89645L2.17458 1.89007L2.2154 1.88427L2.25561 1.87905L2.29643 1.87557L2.33724 1.87267L2.37806 1.87093H2.41947H15V0H2.41947H2.36785L2.31683 0.00173986L2.26522 0.00463963L2.2142 0.0086993L2.16258 0.012759L2.11156 0.0185585L2.06114 0.0260979L2.01012 0.0330574L1.95971 0.0423366L1.90929 0.0521958L1.85947 0.0637949L1.80965 0.075394L1.76043 0.0881529L1.71062 0.102652L1.662 0.117151L1.61338 0.133389L1.56536 0.150208L1.51675 0.168766L1.46993 0.187325L1.42311 0.207043L1.3763 0.228502L1.33008 0.24996L1.28446 0.273158L1.23945 0.296936L1.19503 0.321294L1.15061 0.346812L1.1074 0.37349L1.06418 0.400748L1.02217 0.429166L0.980753 0.458163L0.939338 0.488321L0.899724 0.519058L0.859509 0.550956L0.820495 0.582853L0.782682 0.615911L0.745468 0.650128L0.708855 0.684925L0.672842 0.720302L0.637429 0.756259L0.603217 0.793376L0.569605 0.831073L0.537193 0.86935L0.505382 0.908207L0.474171 0.947644L0.44416 0.988241L0.414749 1.02884L0.386539 1.07001L0.359529 1.11235L0.33252 1.15469L0.307311 1.19818L0.282702 1.24168L0.258693 1.28518L0.236485 1.33041L0.214877 1.37507L0.19387 1.42089L0.174063 1.4667L0.156056 1.51252L0.13805 1.55892L0.121844 1.60647L0.105638 1.65345L0.0912328 1.701L0.0780281 1.74914L0.0654236 1.79728L0.0540194 1.84599L0.0438158 1.89413L0.0348125 1.94284L0.0264095 1.99214L0.0198071 2.04144L0.013805 2.09073L0.00840303 2.14003L0.00480173 2.1899L0.00240086 2.2392L0 2.2885V2.33837V2.38825L0.00240086 2.43754Z" fill="#0DC09D"/>
        </g>
        <defs>
        <clipPath id="clip0_1_3012">
        <rect width="15" height="14.5" fill="white"/>
        </clipPath>
        </defs>
    </symbol>

    <symbol id="icon-aws" viewBox="0 0 15 9" fill="none">
        <path d="M4.1341 3.19641C4.1341 3.37699 4.15244 3.52366 4.18727 3.63182C4.22577 3.73907 4.27527 3.85641 4.3431 3.98382C4.36475 4.01748 4.3765 4.05655 4.37702 4.09657C4.37702 4.14515 4.34769 4.19465 4.28535 4.24324L3.97735 4.44857C3.94038 4.47526 3.89641 4.49056 3.85085 4.49257C3.80136 4.49257 3.75277 4.46874 3.70419 4.42474C3.6383 4.35384 3.57937 4.2768 3.52819 4.19465C3.47397 4.1006 3.42381 4.00426 3.37786 3.90591C2.99652 4.35599 2.51894 4.58149 1.94328 4.58149C1.53353 4.58149 1.20628 4.46324 0.967947 4.22857C0.728697 3.9939 0.606781 3.68041 0.606781 3.28899C0.606781 2.87283 0.753447 2.53549 1.05045 2.28066C1.34836 2.02583 1.74344 1.89933 2.24578 1.89933C2.41078 1.89933 2.58219 1.91399 2.76277 1.93783C2.94336 1.96258 3.12944 2.00199 3.32377 2.04599V1.6885C3.32377 1.31633 3.24586 1.05691 3.09461 0.905664C2.93877 0.753498 2.67477 0.680165 2.29894 0.680165C2.12844 0.680165 1.95336 0.700332 1.77278 0.744331C1.59336 0.787031 1.41722 0.842477 1.2457 0.910247C1.19032 0.935321 1.13336 0.956755 1.0752 0.974414C1.04999 0.982742 1.02379 0.987674 0.99728 0.98908C0.92853 0.98908 0.894614 0.939581 0.894614 0.836914V0.596748C0.894614 0.518832 0.90378 0.459249 0.92853 0.426249C0.965469 0.381273 1.01261 0.345762 1.06603 0.322666C1.23561 0.234666 1.44095 0.161333 1.68019 0.102666C1.91853 0.0384999 2.17244 0.0100834 2.44103 0.0100834C3.02127 0.0100834 3.44569 0.142083 3.71886 0.406082C3.98744 0.670082 4.12402 1.07158 4.12402 1.61058V3.19641H4.13319H4.1341ZM2.15319 3.93982C2.31361 3.93982 2.47953 3.91049 2.65552 3.85182C2.83152 3.79316 2.98736 3.68499 3.11844 3.53832C3.19704 3.44827 3.25382 3.34131 3.28436 3.22574C3.31369 3.10749 3.33386 2.96632 3.33386 2.79949V2.59416C3.1858 2.55826 3.03584 2.53071 2.88469 2.51166C2.7327 2.492 2.57962 2.48189 2.42636 2.48141C2.09911 2.48141 1.86078 2.54558 1.69944 2.67758C1.53811 2.80958 1.46111 2.99566 1.46111 3.24041C1.46111 3.46957 1.51886 3.64099 1.64078 3.75924C1.75811 3.88116 1.92861 3.93982 2.15319 3.93982ZM6.0701 4.46874C5.9821 4.46874 5.92343 4.45407 5.88493 4.41924C5.84552 4.3899 5.8116 4.32207 5.78227 4.22857L4.63644 0.445499C4.61415 0.382056 4.59938 0.316217 4.59244 0.249333C4.59244 0.171416 4.63094 0.127417 4.70885 0.127417H5.18735C5.27902 0.127417 5.34318 0.142083 5.3771 0.176C5.41652 0.205333 5.44585 0.274083 5.47518 0.366666L6.29468 3.60707L7.05551 0.366666C7.07934 0.269499 7.10868 0.205333 7.14809 0.176C7.20665 0.140156 7.27482 0.123195 7.34334 0.127417H7.73384C7.82551 0.127417 7.88968 0.142083 7.92818 0.176C7.96759 0.205333 8.00151 0.274083 8.02168 0.366666L8.79167 3.64649L9.635 0.366666C9.65068 0.295706 9.68448 0.230018 9.73309 0.176C9.78991 0.140061 9.85666 0.123053 9.92375 0.127417H10.3775C10.4554 0.127417 10.4994 0.166833 10.4994 0.249333C10.4994 0.274083 10.4939 0.298833 10.4903 0.328166C10.4823 0.36977 10.4707 0.410574 10.4554 0.450082L9.27934 4.23315C9.25092 4.33124 9.21609 4.3954 9.17759 4.42474C9.12223 4.46014 9.0571 4.47715 8.99151 4.47332H8.57259C8.48001 4.47332 8.41676 4.45865 8.37734 4.42474C8.33792 4.3899 8.30401 4.32665 8.28476 4.22857L7.52851 1.0725L6.77685 4.2249C6.75301 4.32299 6.72368 4.38624 6.68518 4.42015C6.64576 4.45499 6.57701 4.46965 6.48993 4.46965H6.0701V4.46874ZM12.3382 4.60074C12.0851 4.60107 11.8328 4.57154 11.5866 4.51274C11.3427 4.45407 11.153 4.3899 11.0256 4.31657C10.9477 4.27257 10.8945 4.22399 10.8743 4.17907C10.8557 4.13593 10.8461 4.08947 10.8459 4.04249V3.79316C10.8459 3.69049 10.8844 3.64099 10.9578 3.64099C10.9877 3.64106 11.0174 3.64601 11.0458 3.65566C11.0751 3.66574 11.1191 3.68499 11.1677 3.70516C11.3327 3.77849 11.5142 3.83716 11.7039 3.87657C11.8992 3.91507 12.0889 3.93524 12.2842 3.93524C12.5922 3.93524 12.8305 3.88116 12.9964 3.77391C13.0761 3.72566 13.1416 3.65714 13.1862 3.57534C13.2308 3.49354 13.2529 3.40138 13.2503 3.30824C13.252 3.24536 13.2412 3.18277 13.2185 3.12409C13.1958 3.06541 13.1618 3.01179 13.1183 2.96632C13.0312 2.87282 12.8653 2.78941 12.6261 2.71149L11.9184 2.49149C11.5627 2.37874 11.2987 2.21191 11.1383 1.99191C10.9813 1.78863 10.8956 1.53928 10.8945 1.28241C10.8945 1.07708 10.9385 0.895581 11.0256 0.738831C11.1136 0.582998 11.2309 0.445499 11.3776 0.337332C11.5242 0.225499 11.6892 0.142083 11.8845 0.0834165C12.0797 0.02475 12.2842 0 12.4987 0C12.6068 0 12.7187 0.00458367 12.8259 0.0192503C12.9377 0.0339169 13.0404 0.0540835 13.1431 0.0742501C13.2402 0.0980833 13.3337 0.121917 13.4208 0.152167C13.5088 0.1815 13.5767 0.210833 13.6262 0.240166C13.6837 0.269097 13.7339 0.310798 13.7728 0.362082C13.8042 0.409809 13.8193 0.466399 13.8159 0.523415V0.753498C13.8159 0.856164 13.7774 0.910247 13.7041 0.910247C13.6391 0.902833 13.5763 0.882911 13.5189 0.851581C13.2241 0.720915 12.9045 0.655859 12.5821 0.660915C12.3043 0.660915 12.0843 0.704915 11.9331 0.798415C11.7818 0.890081 11.7039 1.03308 11.7039 1.23383C11.7039 1.37041 11.7525 1.48775 11.8506 1.58125C11.9477 1.67383 12.1283 1.76641 12.3868 1.84983L13.0798 2.06983C13.4309 2.18258 13.6848 2.33933 13.8361 2.54008C13.9873 2.74083 14.0597 2.97091 14.0597 3.22574C14.0597 3.43657 14.0167 3.62632 13.9332 3.79316C13.8469 3.96058 13.7256 4.1075 13.5776 4.22399C13.4263 4.3459 13.2457 4.43482 13.0358 4.49807C12.8158 4.56682 12.5867 4.60074 12.3382 4.60074Z" fill="black"/>
        <path fill-rule="evenodd" clip-rule="evenodd" d="M13.2595 6.97854C11.6553 8.16746 9.32333 8.79904 7.31858 8.79904C4.50901 8.79904 1.97718 7.75679 0.0650192 6.0243C-0.0862303 5.8868 0.0503526 5.70071 0.230019 5.80888C2.29893 7.01246 4.85 7.74212 7.49 7.74212C9.26924 7.74212 11.2254 7.36996 13.0257 6.60638C13.2943 6.48446 13.5235 6.78238 13.2595 6.97854Z" fill="black"/>
        <path fill-rule="evenodd" clip-rule="evenodd" d="M13.9277 6.21497C13.7233 5.95188 12.572 6.08847 12.0504 6.15172C11.8946 6.17188 11.8698 6.03438 12.011 5.93172C12.9277 5.28547 14.4356 5.47155 14.6107 5.68697C14.7866 5.90697 14.5621 7.41946 13.7032 8.14363C13.5721 8.25638 13.4456 8.19863 13.5042 8.05196C13.6986 7.56613 14.1331 6.4753 13.9277 6.21588V6.21497Z" fill="black"/>
    </symbol>

    <!-- end icons -->
  </defs>
</svg>